<svg xmlns="http://www.w3.org/2000/svg" width="32" height="32" viewBox="0 0 32 32" fill="none">
  <path d="M3.97779 21.7305C3.85434 21.7186 3.65671 21.6106 3.5209 21.5027C2.19982 20.2441 3.89134 18.7937 5.86687 17.9546V15.5572C6.32376 15.8449 6.58304 15.8569 6.5954 15.8928L8.10166 14.4424L7.5954 13.1958C12.0033 11.7214 13.769 11.1581 17.3496 10.5706L16.7076 9.9833L17.757 9.40796C20.1648 10.1751 22.4366 10.3789 22.0415 12.3447C22.1403 11.0141 20.4364 10.5107 17.8435 9.80344L17.3372 10.1032L18.3003 10.8703C14.0158 11.5895 11.3735 12.4046 8.23739 13.4594L8.66949 14.5383L7.08905 16.0606C7.34832 16.1325 10.1018 17.0196 12.9539 15.0897C12.9539 15.0897 13.0156 15.0537 13.0156 15.0298C12.9292 14.8979 12.7316 14.7421 12.4971 14.5383C13.3366 14.5982 13.8799 15.3054 13.7812 16.0486H13.3861C13.4108 15.8089 13.3613 15.5452 13.275 15.3774C11.065 16.9477 8.49683 17.1754 6.3114 16.4322V18.2902C5.24959 18.6498 3.36044 19.7886 3.37272 20.8914C3.44689 21.4069 3.71844 21.5986 3.97779 21.7305Z" fill="black"/>
  <path d="M13.0172 21.1164C10.6466 22.2791 8.37469 23.214 4.88046 23.346C0.324423 23.25 -0.379468 20.3132 1.76896 17.2445C3.80629 14.1519 7.04125 11.347 12.1776 9.59689C13.6716 9.08147 15.8571 8.50605 17.9684 8.47013C21.0058 8.44612 23.9568 9.35718 23.7592 12.186C23.6481 14.3557 20.4255 17.4004 18.7339 19.594C18.0055 20.553 17.8819 21.1762 19.1291 21.1163C23.6358 20.8286 27.7104 19.3183 31.5009 17.7479C28.9326 19.4382 15.6842 25.8033 15.6348 21.464C15.6471 20.9126 15.9064 20.3253 16.3385 19.7019C16.7584 19.0786 17.3387 18.4313 17.9437 17.772C18.845 16.7771 21.0922 14.3797 21.8454 12.9413C23.1171 10.2562 20.2773 10.1243 17.8202 9.28525L16.7707 9.86068L17.4128 10.448C13.8321 11.0234 12.0665 11.5988 7.65852 13.0732L8.16479 14.3198L6.6708 15.7582C6.6338 15.7223 6.41153 15.7103 5.94235 15.4226V17.8199C3.97911 18.659 2.27522 20.1095 3.5963 21.368C3.7322 21.4759 3.92975 21.5839 4.0532 21.5958C6.47326 22.9144 13.0295 21.1164 13.0172 21.1164Z" fill="#FF6600"/>
</svg>
