<svg xmlns="http://www.w3.org/2000/svg" width="16" height="23" viewBox="0 0 16 23" fill="none">
  <g clip-path="url(#clip0_7875_126)">
    <path d="M3.85388 22.3034C5.98041 22.3034 7.70629 20.6381 7.70629 18.5862V14.869H3.85388C1.72735 14.869 0.00146484 16.5343 0.00146484 18.5862C0.00146484 20.6381 1.72735 22.3034 3.85388 22.3034Z" fill="#0ACF83"/>
    <path d="M0.00146484 11.1517C0.00146484 9.09983 1.72735 7.43451 3.85388 7.43451H7.70629V14.869H3.85388C1.72735 14.869 0.00146484 13.2037 0.00146484 11.1517Z" fill="#A259FF"/>
    <path d="M0.00146484 3.71724C0.00146484 1.66532 1.72735 0 3.85388 0H7.70629V7.43448H3.85388C1.72735 7.43448 0.00146484 5.76916 0.00146484 3.71724Z" fill="#F24E1E"/>
    <path d="M7.70654 0H11.559C13.6855 0 15.4114 1.66532 15.4114 3.71724C15.4114 5.76916 13.6855 7.43448 11.559 7.43448H7.70654V0Z" fill="#FF7262"/>
    <path d="M15.4114 11.1517C15.4114 13.2037 13.6855 14.869 11.559 14.869C9.43242 14.869 7.70654 13.2037 7.70654 11.1517C7.70654 9.09983 9.43242 7.43451 11.559 7.43451C13.6855 7.43451 15.4114 9.09983 15.4114 11.1517Z" fill="#1ABCFE"/>
  </g>
  <defs>
    <clipPath id="clip0_7875_126">
      <rect width="15.4127" height="22.3034" fill="white"/>
    </clipPath>
  </defs>
</svg>
