<svg width="67" height="11" viewBox="0 0 67 11" fill="none" xmlns="http://www.w3.org/2000/svg">
<rect x="0" y="7" width="3" height="4" rx="0.5" fill="#141414"/>
<rect x="5" y="5" width="3" height="6" rx="0.5" fill="#141414"/>
<rect x="10" y="3" width="3" height="8" rx="0.5" fill="#141414"/>
<rect x="15" y="1" width="3" height="10" rx="0.5" fill="#141414"/>
<path d="M29 8.5C29.8284 8.5 30.5 7.82843 30.5 7C30.5 6.17157 29.8284 5.5 29 5.5C28.1716 5.5 27.5 6.17157 27.5 7C27.5 7.82843 28.1716 8.5 29 8.5Z" fill="#141414"/>
<path d="M25.5 5C26.4 4.1 27.6 3.5 29 3.5C30.4 3.5 31.6 4.1 32.5 5" stroke="#141414" stroke-width="1.5" stroke-linecap="round"/>
<path d="M23 2.5C24.6 1 26.7 0 29 0C31.3 0 33.4 1 35 2.5" stroke="#141414" stroke-width="1.5" stroke-linecap="round"/>
<rect x="45" y="1" width="20" height="9" rx="2" stroke="#141414" stroke-width="1"/>
<rect x="47" y="3" width="14" height="5" rx="1" fill="#141414"/>
<rect x="65" y="3.5" width="2" height="4" rx="0.5" fill="#141414"/>
</svg>
